<svg xmlns="http://www.w3.org/2000/svg" xmlns:xlink="http://www.w3.org/1999/xlink" width="500" zoomAndPan="magnify" viewBox="0 0 375 374.999991" height="500" preserveAspectRatio="xMidYMid meet" version="1.0"><defs><g/><clipPath id="0ea6019f6d"><path d="M 122.390625 131.25 L 234.890625 131.25 L 234.890625 243.75 L 122.390625 243.75 Z M 122.390625 131.25 " clip-rule="nonzero"/></clipPath><clipPath id="f27c545e83"><path d="M 178.640625 131.25 C 147.578125 131.25 122.390625 156.433594 122.390625 187.5 C 122.390625 218.566406 147.578125 243.75 178.640625 243.75 C 209.707031 243.75 234.890625 218.566406 234.890625 187.5 C 234.890625 156.433594 209.707031 131.25 178.640625 131.25 Z M 178.640625 131.25 " clip-rule="nonzero"/></clipPath><clipPath id="520c8e626d"><path d="M 0.390625 0.25 L 112.890625 0.25 L 112.890625 112.75 L 0.390625 112.75 Z M 0.390625 0.25 " clip-rule="nonzero"/></clipPath><clipPath id="2261709ada"><path d="M 56.640625 0.25 C 25.578125 0.25 0.390625 25.433594 0.390625 56.5 C 0.390625 87.566406 25.578125 112.75 56.640625 112.75 C 87.707031 112.75 112.890625 87.566406 112.890625 56.5 C 112.890625 25.433594 87.707031 0.25 56.640625 0.25 Z M 56.640625 0.25 " clip-rule="nonzero"/></clipPath><clipPath id="dde78bd7a6"><rect x="0" width="113" y="0" height="113"/></clipPath><clipPath id="db67569bb4"><rect x="0" width="279" y="0" height="290"/></clipPath><clipPath id="79b5367d30"><path d="M 227.652344 92.136719 L 294.066406 92.136719 L 294.066406 158.546875 L 227.652344 158.546875 Z M 227.652344 92.136719 " clip-rule="nonzero"/></clipPath><clipPath id="a6c0856c83"><path d="M 260.859375 92.136719 C 242.519531 92.136719 227.652344 107.003906 227.652344 125.339844 C 227.652344 143.679688 242.519531 158.546875 260.859375 158.546875 C 279.199219 158.546875 294.066406 143.679688 294.066406 125.339844 C 294.066406 107.003906 279.199219 92.136719 260.859375 92.136719 Z M 260.859375 92.136719 " clip-rule="nonzero"/></clipPath><clipPath id="fe34b0653b"><path d="M 0.652344 0.136719 L 67.066406 0.136719 L 67.066406 66.546875 L 0.652344 66.546875 Z M 0.652344 0.136719 " clip-rule="nonzero"/></clipPath><clipPath id="5604f9d204"><path d="M 33.859375 0.136719 C 15.519531 0.136719 0.652344 15.003906 0.652344 33.339844 C 0.652344 51.679688 15.519531 66.546875 33.859375 66.546875 C 52.199219 66.546875 67.066406 51.679688 67.066406 33.339844 C 67.066406 15.003906 52.199219 0.136719 33.859375 0.136719 Z M 33.859375 0.136719 " clip-rule="nonzero"/></clipPath><clipPath id="45d04af9f1"><rect x="0" width="68" y="0" height="67"/></clipPath><clipPath id="9f4da6071f"><path d="M 211.914062 50.382812 L 278.328125 50.382812 L 278.328125 116.792969 L 211.914062 116.792969 Z M 211.914062 50.382812 " clip-rule="nonzero"/></clipPath><clipPath id="a8fb37ff98"><path d="M 245.121094 50.382812 C 226.78125 50.382812 211.914062 65.25 211.914062 83.585938 C 211.914062 101.925781 226.78125 116.792969 245.121094 116.792969 C 263.460938 116.792969 278.328125 101.925781 278.328125 83.585938 C 278.328125 65.25 263.460938 50.382812 245.121094 50.382812 Z M 245.121094 50.382812 " clip-rule="nonzero"/></clipPath><clipPath id="aaca2e7a08"><path d="M 0.914062 0.382812 L 67.328125 0.382812 L 67.328125 66.792969 L 0.914062 66.792969 Z M 0.914062 0.382812 " clip-rule="nonzero"/></clipPath><clipPath id="c0f33083e5"><path d="M 34.121094 0.382812 C 15.78125 0.382812 0.914062 15.25 0.914062 33.585938 C 0.914062 51.925781 15.78125 66.792969 34.121094 66.792969 C 52.460938 66.792969 67.328125 51.925781 67.328125 33.585938 C 67.328125 15.25 52.460938 0.382812 34.121094 0.382812 Z M 34.121094 0.382812 " clip-rule="nonzero"/></clipPath><clipPath id="8cb384992a"><rect x="0" width="68" y="0" height="67"/></clipPath><clipPath id="ead439e34d"><path d="M 107.539062 219.589844 L 246.890625 219.589844 L 246.890625 266.082031 L 107.539062 266.082031 Z M 107.539062 219.589844 " clip-rule="nonzero"/></clipPath><clipPath id="97c21e2bf7"><path d="M 0.539062 0.589844 L 139.890625 0.589844 L 139.890625 47.082031 L 0.539062 47.082031 Z M 0.539062 0.589844 " clip-rule="nonzero"/></clipPath><clipPath id="294a67998e"><rect x="0" width="140" y="0" height="48"/></clipPath><clipPath id="c4320c5a5a"><path d="M 125 112.5 L 236 112.5 L 236 204 L 125 204 Z M 125 112.5 " clip-rule="nonzero"/></clipPath><clipPath id="ba47ae3c8f"><path d="M 94.011719 224 L 189 224 L 189 265 L 94.011719 265 Z M 94.011719 224 " clip-rule="nonzero"/></clipPath></defs><g clip-path="url(#0ea6019f6d)"><g clip-path="url(#f27c545e83)"><g transform="matrix(1, 0, 0, 1, 122, 131)"><g clip-path="url(#dde78bd7a6)"><g clip-path="url(#520c8e626d)"><g clip-path="url(#2261709ada)"><path fill="#ffffff" d="M 0.390625 0.25 L 112.890625 0.25 L 112.890625 112.75 L 0.390625 112.75 Z M 0.390625 0.25 " fill-opacity="1" fill-rule="nonzero"/></g></g></g></g></g></g><g transform="matrix(1, 0, 0, 1, 74, 71)"><g clip-path="url(#db67569bb4)"><g fill="#ffffff" fill-opacity="1"><g transform="translate(0.701706, 216.044268)"><g><path d="M 10.578125 -130.328125 C 10.578125 -143.859375 10.191406 -155.429688 9.421875 -165.046875 C 8.660156 -174.671875 7.804688 -181.769531 6.859375 -186.34375 C 12.191406 -189.96875 18.570312 -193.066406 26 -195.640625 C 33.4375 -198.210938 41.15625 -200.304688 49.15625 -201.921875 C 57.15625 -203.546875 64.867188 -204.738281 72.296875 -205.5 C 79.734375 -206.257812 86.117188 -206.640625 91.453125 -206.640625 C 102.316406 -206.640625 113.367188 -206.113281 124.609375 -205.0625 C 135.859375 -204.019531 146.671875 -201.6875 157.046875 -198.0625 C 167.429688 -194.445312 176.816406 -188.734375 185.203125 -180.921875 C 193.585938 -173.296875 200.539062 -163.195312 206.0625 -150.625 C 211.59375 -138.050781 214.453125 -122.140625 214.640625 -102.890625 C 214.835938 -93.554688 213.882812 -84.03125 211.78125 -74.3125 C 209.6875 -64.59375 206.445312 -55.300781 202.0625 -46.4375 C 197.6875 -37.582031 191.972656 -29.914062 184.921875 -23.4375 C 177.679688 -16.570312 169.441406 -11.28125 160.203125 -7.5625 C 150.960938 -3.851562 141.382812 -1.332031 131.46875 0 C 121.5625 1.332031 111.65625 2 101.75 2 C 93.175781 2 84.03125 1.144531 74.3125 -0.5625 C 64.59375 -2.28125 55.394531 -5.140625 46.71875 -9.140625 C 38.050781 -13.140625 30.765625 -18.570312 24.859375 -25.4375 C 20.671875 -30.582031 17.242188 -36.867188 14.578125 -44.296875 C 11.910156 -51.734375 10.578125 -62.023438 10.578125 -75.171875 Z M 93.171875 -144.328125 C 93.171875 -130.421875 93.125 -116.320312 93.03125 -102.03125 C 92.9375 -87.738281 93.078125 -73.640625 93.453125 -59.734375 C 96.316406 -59.160156 99.082031 -58.875 101.75 -58.875 C 107.082031 -58.875 111.609375 -59.96875 115.328125 -62.15625 C 119.046875 -64.351562 122.140625 -67.359375 124.609375 -71.171875 C 127.472656 -75.546875 129.519531 -80.972656 130.75 -87.453125 C 131.988281 -93.929688 132.515625 -100.125 132.328125 -106.03125 C 132.328125 -112.320312 131.707031 -118.5625 130.46875 -124.75 C 129.226562 -130.945312 126.75 -136.140625 123.03125 -140.328125 C 119.320312 -144.523438 113.5625 -146.625 105.75 -146.625 C 101.9375 -146.625 97.742188 -145.859375 93.171875 -144.328125 Z M 93.171875 -144.328125 "/></g></g></g><g fill="#ffffff" fill-opacity="1"><g transform="translate(223.677477, 216.044268)"><g/></g></g></g></g><g clip-path="url(#79b5367d30)"><g clip-path="url(#a6c0856c83)"><g transform="matrix(1, 0, 0, 1, 227, 92)"><g clip-path="url(#45d04af9f1)"><g clip-path="url(#fe34b0653b)"><g clip-path="url(#5604f9d204)"><path fill="#ff863b" d="M 0.652344 0.136719 L 67.066406 0.136719 L 67.066406 66.546875 L 0.652344 66.546875 Z M 0.652344 0.136719 " fill-opacity="1" fill-rule="nonzero"/></g></g></g></g></g></g><g clip-path="url(#9f4da6071f)"><g clip-path="url(#a8fb37ff98)"><g transform="matrix(1, 0, 0, 1, 211, 50)"><g clip-path="url(#8cb384992a)"><g clip-path="url(#aaca2e7a08)"><g clip-path="url(#c0f33083e5)"><path fill="#ff863b" d="M 0.914062 0.382812 L 67.328125 0.382812 L 67.328125 66.792969 L 0.914062 66.792969 Z M 0.914062 0.382812 " fill-opacity="1" fill-rule="nonzero"/></g></g></g></g></g></g><g clip-path="url(#ead439e34d)"><g transform="matrix(1, 0, 0, 1, 107, 219)"><g clip-path="url(#294a67998e)"><g clip-path="url(#97c21e2bf7)"><path fill="#ffffff" d="M 0.539062 0.589844 L 139.835938 0.589844 L 139.835938 47.082031 L 0.539062 47.082031 Z M 0.539062 0.589844 " fill-opacity="1" fill-rule="nonzero"/></g></g></g></g><g clip-path="url(#c4320c5a5a)"><path fill="#ff863b" d="M 139.890625 203.636719 C 141.203125 203.359375 142.421875 202.859375 143.550781 202.144531 C 144.683594 201.429688 145.652344 200.539062 146.464844 199.476562 L 167.335938 175.070312 C 167.582031 174.785156 167.765625 174.460938 167.886719 174.101562 C 168.003906 173.742188 168.050781 173.375 168.023438 172.996094 C 168 172.617188 167.902344 172.261719 167.734375 171.921875 C 167.566406 171.582031 167.339844 171.285156 167.054688 171.035156 C 166.773438 170.785156 166.453125 170.597656 166.09375 170.476562 C 165.734375 170.351562 165.367188 170.300781 164.992188 170.320312 C 164.613281 170.34375 164.253906 170.433594 163.910156 170.597656 C 163.570312 170.761719 163.269531 170.984375 163.015625 171.261719 L 162.964844 171.324219 L 141.949219 195.902344 L 141.824219 196.074219 C 141.59375 196.339844 141.347656 196.585938 141.074219 196.808594 C 140.804688 197.03125 140.515625 197.226562 140.207031 197.398438 C 139.902344 197.566406 139.582031 197.707031 139.25 197.820312 C 138.917969 197.933594 138.578125 198.011719 138.230469 198.0625 C 137.882812 198.113281 137.535156 198.132812 137.183594 198.121094 C 136.832031 198.105469 136.488281 198.0625 136.144531 197.984375 C 135.800781 197.910156 135.46875 197.804688 135.148438 197.667969 C 134.824219 197.53125 134.515625 197.367188 134.222656 197.175781 C 133.902344 196.964844 133.605469 196.722656 133.335938 196.453125 C 133.066406 196.179688 132.824219 195.886719 132.613281 195.566406 C 132.402344 195.246094 132.226562 194.910156 132.082031 194.554688 C 131.941406 194.199219 131.835938 193.832031 131.765625 193.453125 C 131.699219 193.078125 131.667969 192.699219 131.675781 192.316406 C 131.683594 191.929688 131.734375 191.554688 131.816406 191.179688 C 131.902344 190.804688 132.023438 190.445312 132.183594 190.097656 C 132.34375 189.746094 132.535156 189.417969 132.761719 189.109375 L 132.769531 189.101562 L 160.515625 152.9375 C 162.304688 150.597656 164.261719 148.410156 166.378906 146.367188 C 168.5 144.320312 170.757812 142.449219 173.160156 140.746094 C 175.558594 139.039062 178.074219 137.523438 180.703125 136.199219 C 183.332031 134.871094 186.042969 133.75 188.839844 132.828125 L 233.003906 118.175781 C 233.367188 118.0625 233.699219 117.886719 233.992188 117.640625 C 234.285156 117.398438 234.523438 117.105469 234.699219 116.765625 C 234.878906 116.429688 234.984375 116.070312 235.019531 115.6875 C 235.054688 115.308594 235.015625 114.933594 234.90625 114.570312 C 234.792969 114.203125 234.613281 113.875 234.367188 113.582031 C 234.125 113.285156 233.832031 113.050781 233.492188 112.871094 C 233.15625 112.695312 232.796875 112.585938 232.414062 112.550781 C 232.035156 112.515625 231.660156 112.554688 231.296875 112.667969 L 231.179688 112.707031 L 187.035156 127.363281 C 183.96875 128.375 180.992188 129.609375 178.109375 131.066406 C 175.222656 132.523438 172.464844 134.183594 169.828125 136.054688 C 167.195312 137.925781 164.714844 139.980469 162.386719 142.222656 C 160.0625 144.464844 157.914062 146.867188 155.949219 149.429688 L 128.164062 185.664062 L 128.121094 185.75 C 127.671875 186.378906 127.289062 187.042969 126.972656 187.75 C 126.65625 188.453125 126.414062 189.183594 126.242188 189.9375 C 126.074219 190.691406 125.980469 191.457031 125.964844 192.230469 C 125.949219 193.003906 126.011719 193.769531 126.148438 194.53125 C 126.289062 195.289062 126.5 196.03125 126.789062 196.746094 C 127.074219 197.464844 127.429688 198.148438 127.855469 198.792969 C 128.28125 199.4375 128.765625 200.035156 129.308594 200.585938 C 129.855469 201.132812 130.449219 201.621094 131.09375 202.050781 L 131.160156 202.117188 C 132.460938 202.949219 133.867188 203.5 135.382812 203.773438 C 136.902344 204.042969 138.410156 204.015625 139.917969 203.6875 Z M 139.890625 203.636719 " fill-opacity="1" fill-rule="evenodd"/></g><path fill="#ff863b" d="M 237.976562 166.453125 L 254.660156 153.808594 C 254.972656 153.589844 255.230469 153.316406 255.433594 152.992188 C 255.636719 152.667969 255.769531 152.320312 255.832031 151.941406 C 255.898438 151.566406 255.886719 151.191406 255.800781 150.820312 C 255.71875 150.445312 255.5625 150.105469 255.34375 149.792969 C 255.121094 149.480469 254.851562 149.222656 254.527344 149.019531 C 254.203125 148.816406 253.851562 148.683594 253.476562 148.621094 C 253.101562 148.554688 252.726562 148.566406 252.351562 148.652344 C 251.980469 148.738281 251.636719 148.890625 251.328125 149.109375 L 251.1875 149.214844 L 234.496094 161.867188 C 232.28125 163.542969 229.859375 164.824219 227.226562 165.710938 C 224.59375 166.601562 221.890625 167.050781 219.113281 167.058594 L 198.160156 167.121094 C 197.648438 167.125 197.171875 167.253906 196.730469 167.507812 L 177.976562 178.335938 C 177.648438 178.527344 177.304688 178.683594 176.949219 178.808594 C 176.589844 178.933594 176.222656 179.019531 175.847656 179.070312 C 175.472656 179.121094 175.09375 179.136719 174.714844 179.113281 C 174.335938 179.089844 173.964844 179.03125 173.597656 178.933594 C 173.230469 178.835938 172.878906 178.703125 172.539062 178.539062 C 172.199219 178.371094 171.875 178.171875 171.574219 177.945312 C 171.273438 177.714844 170.996094 177.457031 170.746094 177.171875 C 170.496094 176.890625 170.277344 176.582031 170.085938 176.253906 L 168.890625 174.230469 C 168.695312 173.914062 168.535156 173.582031 168.410156 173.230469 C 168.285156 172.882812 168.195312 172.523438 168.140625 172.15625 C 168.085938 171.789062 168.066406 171.421875 168.085938 171.050781 C 168.109375 170.679688 168.164062 170.316406 168.257812 169.957031 C 168.347656 169.597656 168.476562 169.25 168.640625 168.917969 C 168.800781 168.582031 168.996094 168.269531 169.222656 167.972656 C 169.445312 167.679688 169.699219 167.410156 169.976562 167.164062 C 170.257812 166.917969 170.558594 166.707031 170.882812 166.523438 L 199.449219 150.027344 C 199.785156 149.847656 200.074219 149.613281 200.316406 149.316406 C 200.558594 149.023438 200.738281 148.695312 200.847656 148.328125 C 200.960938 147.964844 200.996094 147.589844 200.960938 147.210938 C 200.925781 146.832031 200.816406 146.472656 200.636719 146.136719 C 200.457031 145.796875 200.222656 145.507812 199.925781 145.265625 C 199.632812 145.023438 199.304688 144.84375 198.9375 144.734375 C 198.574219 144.621094 198.199219 144.582031 197.820312 144.617188 C 197.441406 144.65625 197.082031 144.761719 196.746094 144.941406 L 196.566406 145.042969 L 168 161.535156 C 167.351562 161.914062 166.746094 162.351562 166.1875 162.851562 C 165.625 163.351562 165.117188 163.898438 164.664062 164.496094 C 164.210938 165.09375 163.820312 165.730469 163.496094 166.40625 C 163.167969 167.082031 162.910156 167.785156 162.71875 168.511719 C 162.53125 169.238281 162.414062 169.976562 162.371094 170.722656 C 162.328125 171.472656 162.359375 172.21875 162.464844 172.964844 C 162.566406 173.707031 162.742188 174.433594 162.992188 175.140625 C 163.238281 175.847656 163.554688 176.527344 163.933594 177.171875 L 165.144531 179.203125 C 165.527344 179.847656 165.972656 180.449219 166.476562 181.011719 C 166.980469 181.570312 167.53125 182.078125 168.132812 182.527344 C 168.734375 182.980469 169.371094 183.371094 170.050781 183.699219 C 170.726562 184.027344 171.429688 184.285156 172.15625 184.476562 C 172.882812 184.667969 173.621094 184.789062 174.375 184.835938 C 175.125 184.882812 175.871094 184.855469 176.617188 184.757812 C 177.363281 184.660156 178.09375 184.492188 178.804688 184.25 C 179.519531 184.011719 180.203125 183.703125 180.855469 183.328125 L 198.949219 172.882812 L 219.125 172.820312 C 222.53125 172.8125 225.847656 172.265625 229.074219 171.175781 C 232.296875 170.089844 235.269531 168.515625 237.980469 166.453125 Z M 237.976562 166.453125 " fill-opacity="1" fill-rule="evenodd"/><g clip-path="url(#ba47ae3c8f)"><path fill="#ff863b" d="M 112.480469 242.949219 L 95.800781 255.597656 C 95.488281 255.816406 95.234375 256.089844 95.03125 256.414062 C 94.828125 256.734375 94.695312 257.085938 94.628906 257.460938 C 94.566406 257.839844 94.578125 258.210938 94.660156 258.585938 C 94.746094 258.957031 94.898438 259.296875 95.121094 259.609375 C 95.339844 259.921875 95.613281 260.179688 95.9375 260.382812 C 96.257812 260.585938 96.609375 260.71875 96.984375 260.78125 C 97.363281 260.847656 97.734375 260.835938 98.109375 260.753906 C 98.480469 260.667969 98.824219 260.515625 99.132812 260.292969 L 99.273438 260.191406 L 115.960938 247.539062 C 118.175781 245.863281 120.601562 244.582031 123.234375 243.691406 C 125.863281 242.804688 128.570312 242.355469 131.347656 242.347656 L 152.300781 242.28125 C 152.808594 242.28125 153.285156 242.152344 153.726562 241.898438 L 172.484375 231.070312 C 172.808594 230.878906 173.152344 230.71875 173.511719 230.597656 C 173.871094 230.472656 174.238281 230.386719 174.613281 230.335938 C 174.988281 230.285156 175.363281 230.269531 175.742188 230.292969 C 176.121094 230.316406 176.492188 230.375 176.859375 230.472656 C 177.226562 230.570312 177.582031 230.703125 177.921875 230.867188 C 178.261719 231.035156 178.582031 231.230469 178.882812 231.460938 C 179.183594 231.691406 179.460938 231.949219 179.710938 232.234375 C 179.964844 232.515625 180.183594 232.824219 180.375 233.148438 L 181.570312 235.175781 C 181.761719 235.492188 181.921875 235.824219 182.046875 236.171875 C 182.175781 236.523438 182.265625 236.882812 182.320312 237.25 C 182.375 237.617188 182.390625 237.984375 182.371094 238.355469 C 182.351562 238.726562 182.296875 239.089844 182.203125 239.449219 C 182.109375 239.808594 181.980469 240.15625 181.820312 240.492188 C 181.65625 240.824219 181.464844 241.140625 181.238281 241.433594 C 181.011719 241.730469 180.761719 242 180.480469 242.242188 C 180.199219 242.488281 179.898438 242.699219 179.578125 242.886719 L 151.011719 259.378906 C 150.679688 259.5625 150.394531 259.804688 150.15625 260.105469 C 149.917969 260.402344 149.746094 260.738281 149.644531 261.105469 C 149.539062 261.472656 149.507812 261.84375 149.550781 262.222656 C 149.597656 262.601562 149.710938 262.960938 149.894531 263.292969 C 150.082031 263.625 150.324219 263.910156 150.621094 264.148438 C 150.921875 264.386719 151.253906 264.558594 151.621094 264.664062 C 151.988281 264.769531 152.363281 264.796875 152.742188 264.753906 C 153.121094 264.710938 153.476562 264.597656 153.808594 264.414062 L 153.890625 264.367188 L 182.457031 247.875 C 183.105469 247.496094 183.710938 247.054688 184.269531 246.558594 C 184.832031 246.058594 185.339844 245.511719 185.792969 244.914062 C 186.246094 244.3125 186.636719 243.675781 186.964844 243 C 187.289062 242.324219 187.550781 241.625 187.738281 240.898438 C 187.925781 240.171875 188.042969 239.433594 188.085938 238.683594 C 188.128906 237.9375 188.097656 237.191406 187.996094 236.445312 C 187.890625 235.703125 187.714844 234.976562 187.46875 234.269531 C 187.21875 233.558594 186.90625 232.882812 186.523438 232.234375 L 185.316406 230.207031 C 184.929688 229.5625 184.484375 228.960938 183.984375 228.398438 C 183.480469 227.839844 182.929688 227.335938 182.328125 226.882812 C 181.726562 226.429688 181.085938 226.039062 180.410156 225.710938 C 179.734375 225.382812 179.03125 225.125 178.304688 224.933594 C 177.574219 224.742188 176.835938 224.621094 176.085938 224.574219 C 175.335938 224.527344 174.585938 224.554688 173.839844 224.652344 C 173.09375 224.75 172.367188 224.917969 171.652344 225.160156 C 170.941406 225.398438 170.257812 225.707031 169.601562 226.082031 L 151.511719 236.527344 L 131.332031 236.59375 C 127.929688 236.597656 124.613281 237.144531 121.386719 238.234375 C 118.160156 239.324219 115.191406 240.894531 112.480469 242.957031 Z M 112.480469 242.949219 " fill-opacity="1" fill-rule="evenodd"/></g><path fill="#ff863b" d="M 211.03125 205.71875 C 209.679688 205.980469 208.410156 206.460938 207.226562 207.15625 C 206.039062 207.851562 205 208.726562 204.113281 209.78125 L 183.125 234.332031 C 182.871094 234.617188 182.683594 234.941406 182.558594 235.304688 C 182.433594 235.667969 182.386719 236.039062 182.410156 236.417969 C 182.433594 236.800781 182.53125 237.164062 182.699219 237.507812 C 182.867188 237.847656 183.09375 238.148438 183.378906 238.398438 C 183.667969 238.652344 183.992188 238.839844 184.355469 238.964844 C 184.714844 239.085938 185.085938 239.136719 185.46875 239.113281 C 185.851562 239.089844 186.210938 238.992188 186.554688 238.824219 C 186.898438 238.652344 187.195312 238.425781 187.449219 238.140625 L 187.496094 238.082031 L 208.511719 213.503906 L 208.523438 213.496094 C 208.722656 213.1875 208.953125 212.902344 209.214844 212.640625 C 209.476562 212.378906 209.761719 212.144531 210.070312 211.941406 C 210.378906 211.742188 210.707031 211.574219 211.050781 211.4375 C 211.394531 211.304688 211.75 211.207031 212.113281 211.148438 C 212.480469 211.089844 212.847656 211.070312 213.214844 211.085938 C 213.585938 211.105469 213.949219 211.160156 214.304688 211.253906 C 214.664062 211.347656 215.007812 211.476562 215.335938 211.644531 C 215.667969 211.808594 215.976562 212.007812 216.265625 212.238281 C 216.585938 212.449219 216.882812 212.6875 217.15625 212.960938 C 217.429688 213.230469 217.671875 213.527344 217.882812 213.847656 C 218.09375 214.167969 218.273438 214.507812 218.414062 214.863281 C 218.558594 215.21875 218.664062 215.585938 218.730469 215.964844 C 218.796875 216.34375 218.824219 216.726562 218.816406 217.109375 C 218.804688 217.492188 218.753906 217.871094 218.667969 218.246094 C 218.578125 218.621094 218.453125 218.980469 218.292969 219.332031 C 218.128906 219.679688 217.933594 220.007812 217.707031 220.316406 L 217.695312 220.320312 L 189.953125 256.484375 C 188.164062 258.824219 186.207031 261.011719 184.089844 263.054688 C 181.96875 265.097656 179.710938 266.972656 177.308594 268.675781 C 174.90625 270.382812 172.394531 271.898438 169.765625 273.222656 C 167.136719 274.550781 164.425781 275.671875 161.628906 276.59375 L 117.460938 291.246094 C 117.101562 291.367188 116.773438 291.554688 116.484375 291.804688 C 116.195312 292.054688 115.964844 292.351562 115.792969 292.691406 C 115.625 293.035156 115.523438 293.394531 115.496094 293.777344 C 115.46875 294.160156 115.515625 294.53125 115.636719 294.894531 C 115.757812 295.257812 115.941406 295.582031 116.195312 295.871094 C 116.445312 296.160156 116.738281 296.390625 117.082031 296.5625 C 117.421875 296.734375 117.785156 296.832031 118.167969 296.859375 C 118.546875 296.886719 118.921875 296.839844 119.28125 296.71875 L 163.433594 282.0625 C 166.503906 281.050781 169.480469 279.816406 172.363281 278.359375 C 175.246094 276.902344 178.007812 275.238281 180.640625 273.371094 C 183.277344 271.5 185.757812 269.445312 188.085938 267.203125 C 190.410156 264.960938 192.558594 262.558594 194.523438 259.996094 L 222.308594 223.761719 L 222.351562 223.675781 C 223.027344 222.753906 223.550781 221.75 223.925781 220.667969 C 224.300781 219.585938 224.507812 218.472656 224.546875 217.328125 C 224.585938 216.183594 224.457031 215.058594 224.160156 213.953125 C 223.859375 212.847656 223.40625 211.808594 222.796875 210.839844 C 222.183594 209.871094 221.445312 209.015625 220.578125 208.269531 C 219.707031 207.523438 218.75 206.921875 217.699219 206.460938 C 216.652344 206.003906 215.558594 205.710938 214.417969 205.582031 C 213.28125 205.453125 212.148438 205.492188 211.023438 205.703125 Z M 211.03125 205.71875 " fill-opacity="1" fill-rule="evenodd"/></svg>